<?xml version="1.0" standalone="no"?>
<!DOCTYPE svg PUBLIC "-//W3C//DTD SVG 20010904//EN"
 "http://www.w3.org/TR/2001/REC-SVG-20010904/DTD/svg10.dtd">
<svg version="1.0" xmlns="http://www.w3.org/2000/svg"
 width="500.000000pt" height="500.000000pt" viewBox="0 0 500.000000 500.000000"
 preserveAspectRatio="xMidYMid meet">
<metadata>
Created by potrace 1.14, written by Peter Selinger 2001-2017
</metadata>
<g transform="translate(0.000000,500.000000) scale(0.100000,-0.100000)"
fill="#000000" stroke="none">
<path d="M0 2500 l0 -2500 2500 0 2500 0 0 2500 0 2500 -2500 0 -2500 0 0
-2500z m2948 1514 c47 -19 88 -58 113 -106 18 -35 19 -63 19 -450 -1 -368 -3
-418 -18 -463 -10 -27 -111 -194 -225 -370 l-207 -320 0 -327 0 -328 -140 0
-140 0 0 318 c0 253 3 330 15 377 13 49 56 120 230 382 l215 323 0 370 0 370
-310 0 -310 0 0 -340 0 -340 -141 0 -140 0 3 378 c3 364 4 378 25 417 27 50
68 89 113 109 53 23 843 23 898 0z m-308 -2874 l0 -170 -150 0 -150 0 0 170 0
170 150 0 150 0 0 -170z"/>
</g>
</svg>
